<svg width="120" height="120" viewBox="0 0 120 120" fill="none" xmlns="http://www.w3.org/2000/svg">
<rect x="0.5" y="0.5" width="119" height="119" rx="1.5" stroke="#00C78A"/>
<g clip-path="url(#clip0)">
<path d="M68.1189 63.1127C70.1353 60.2904 71.3414 56.8236 71.3414 53.0654C71.3414 43.6575 63.8735 36.0029 54.6951 36.0029C45.5166 36.0029 38.0488 43.6575 38.0488 53.0654C38.0488 62.4733 45.5167 70.1279 54.6951 70.1279C58.3617 70.1279 61.7442 68.8915 64.4977 66.8247L75.4031 78.0027L79.0244 74.2908C79.0244 74.2907 68.1189 63.1127 68.1189 63.1127V63.1127ZM54.6951 64.8778C48.3402 64.8778 43.1708 59.5792 43.1708 53.0654C43.1708 46.5516 48.3402 41.253 54.6951 41.253C61.05 41.253 66.2195 46.5516 66.2195 53.0654C66.2195 59.5792 61.05 64.8778 54.6951 64.8778Z" fill="#00C78A"/>
</g>
<defs>
<clipPath id="clip0">
<rect width="40.9756" height="42" fill="white" transform="translate(38.0488 36)"/>
</clipPath>
</defs>
</svg>
