<?xml version="1.0" standalone="no"?>
<!DOCTYPE svg PUBLIC "-//W3C//DTD SVG 20010904//EN"
 "http://www.w3.org/TR/2001/REC-SVG-20010904/DTD/svg10.dtd">
<svg version="1.0" xmlns="http://www.w3.org/2000/svg"
 width="500.000000pt" height="209.000000pt" viewBox="0 0 500.000000 209.000000"
 preserveAspectRatio="xMidYMid meet">

<g transform="translate(0.000000,209.000000) scale(0.100000,-0.100000)"
fill="#000000" stroke="none">
<path d="M1420 1832 l0 -118 40 -23 40 -22 0 95 0 96 35 0 35 0 2 -197 3 -197
70 -41 70 -42 3 -369 2 -369 -251 -145 c-137 -80 -256 -146 -263 -148 -7 -2
-132 123 -276 278 -145 154 -265 280 -266 280 -2 0 99 -138 224 -307 125 -170
238 -323 251 -341 16 -23 28 -31 40 -27 9 3 152 85 319 181 l302 176 0 422 0
422 -70 40 -70 39 0 218 0 217 -120 0 -120 0 0 -118z"/>
<path d="M783 1677 c-155 -89 -282 -166 -282 -172 0 -5 10 -23 22 -38 l23 -28
268 156 269 156 171 -100 c94 -54 188 -109 209 -121 l37 -22 0 50 0 50 -198
116 c-110 64 -207 116 -218 116 -10 0 -146 -73 -301 -163z"/>
<path d="M921 1546 c-7 -9 -11 -38 -9 -73 l3 -58 73 -3 72 -3 0 69 c0 79 -3
82 -80 82 -29 0 -52 -6 -59 -14z"/>
<path d="M1117 1554 c-4 -4 -7 -38 -7 -76 l0 -68 70 0 71 0 -3 73 -3 72 -60 3
c-34 2 -64 0 -68 -4z"/>
<path d="M370 1431 c-6 -13 -10 -164 -10 -424 0 -357 2 -406 16 -418 24 -20
679 -397 683 -393 2 1 -25 40 -60 85 l-64 82 -242 140 -243 140 0 306 1 306
136 -145 c76 -80 177 -185 226 -235 88 -90 88 -89 -128 205 -204 276 -278 370
-297 370 -4 0 -12 -9 -18 -19z"/>
<path d="M914 1326 c-3 -7 -4 -38 -2 -67 l3 -54 73 -3 72 -3 0 71 0 70 -70 0
c-51 0 -72 -4 -76 -14z"/>
<path d="M1110 1270 l0 -70 70 0 70 0 0 70 0 70 -70 0 -70 0 0 -70z"/>
<path d="M4448 1313 c-28 -29 -28 -31 -28 -160 0 -110 3 -132 16 -137 9 -3 53
-6 98 -6 72 0 86 3 116 25 l34 25 -102 0 -101 0 -3 141 -3 140 -27 -28z"/>
<path d="M2323 1315 c-17 -12 -23 -26 -23 -56 0 -38 1 -39 35 -39 l35 0 0
-100 0 -100 44 0 c29 0 52 7 67 20 l24 19 -42 1 -43 0 0 100 0 100 -34 0 c-33
0 -35 2 -38 35 -3 35 -4 35 -25 20z"/>
<path d="M2953 1315 c-22 -15 -23 -22 -23 -156 l0 -139 43 0 c26 0 51 8 67 20
l25 20 -42 0 -42 0 -3 135 -3 135 -22 -15z"/>
<path d="M3542 1312 c-22 -17 -23 -22 -20 -157 l3 -140 36 -3 c28 -2 44 3 65
22 l29 25 -42 1 -42 0 -3 134 -3 135 -23 -17z"/>
<path d="M3888 1310 c-51 -39 -100 -254 -66 -288 20 -20 65 -14 95 13 l28 24
-37 1 -38 0 0 73 c0 54 6 90 24 135 14 34 23 62 22 62 -2 0 -14 -9 -28 -20z"/>
<path d="M3251 1285 c-38 -44 -44 -112 -12 -144 19 -19 19 -20 0 -37 -14 -13
-19 -28 -17 -53 3 -36 4 -36 53 -39 73 -5 127 6 158 31 l28 22 -93 0 -93 0 0
30 c0 30 0 30 63 33 78 4 86 26 13 36 -27 3 -54 12 -60 20 -18 21 -24 73 -13
106 6 16 9 30 8 30 -2 0 -18 -16 -35 -35z"/>
<path d="M2627 1282 c-25 -26 -27 -34 -27 -119 0 -81 3 -95 23 -118 40 -47
154 -47 212 -1 l30 25 -42 -11 c-58 -14 -125 -3 -152 26 -21 22 -22 32 -19
125 2 56 3 101 2 101 0 0 -12 -13 -27 -28z"/>
<path d="M4166 1279 c-24 -28 -26 -38 -26 -119 0 -78 3 -92 23 -115 18 -21 34
-27 89 -32 59 -5 71 -3 105 18 l38 24 -83 5 c-74 4 -86 8 -104 30 -17 21 -19
36 -16 122 1 54 2 98 1 98 0 0 -13 -14 -27 -31z"/>
<path d="M2747 1263 c-3 -5 -3 -37 0 -71 5 -57 8 -62 30 -62 23 0 24 2 21 68
-3 60 -5 67 -25 70 -11 2 -23 -1 -26 -5z"/>
<path d="M3660 1241 c0 -27 4 -31 26 -31 22 0 25 4 22 28 -2 19 -9 28 -25 30
-20 3 -23 -1 -23 -27z"/>
<path d="M4618 1263 c-69 -5 -76 -20 -12 -25 34 -2 49 1 61 14 9 10 14 17 12
16 -2 -1 -30 -3 -61 -5z"/>
<path d="M2510 1240 c0 -11 3 -20 6 -20 3 0 17 9 31 20 l26 20 -32 0 c-24 0
-31 -4 -31 -20z"/>
<path d="M3070 1234 c0 -21 4 -25 23 -22 14 2 23 11 25 26 3 18 -1 22 -22 22
-21 0 -26 -5 -26 -26z"/>
<path d="M3366 1251 c18 -17 72 -21 84 -6 11 13 5 15 -41 15 -30 0 -49 -4 -43
-9z"/>
<path d="M3966 1238 c-9 -35 -8 -38 19 -38 25 0 31 13 19 44 -9 23 -31 19 -38
-6z"/>
<path d="M4280 1240 c0 -16 7 -20 33 -20 21 0 41 8 52 20 18 20 17 20 -33 20
-45 0 -52 -3 -52 -20z"/>
<path d="M4565 1160 c-20 -32 42 -41 70 -10 18 20 17 20 -23 20 -22 0 -44 -4
-47 -10z"/>
<path d="M3118 1143 c-42 -4 -48 -7 -48 -27 0 -19 4 -22 23 -19 13 3 37 15 53
29 16 13 27 23 24 22 -3 -1 -26 -3 -52 -5z"/>
<path d="M3708 1143 c-43 -4 -48 -7 -48 -29 0 -13 2 -24 5 -24 16 0 72 29 84
43 7 10 12 16 10 15 -2 -1 -25 -3 -51 -5z"/>
<path d="M3950 1105 c0 -14 4 -25 9 -25 6 0 11 -15 13 -32 3 -30 6 -33 38 -36
25 -2 43 4 65 22 l30 25 -42 1 c-42 0 -43 1 -43 35 0 33 -2 35 -35 35 -31 0
-35 -3 -35 -25z"/>
<path d="M3570 810 c0 -69 12 -92 24 -47 l6 22 19 -22 c28 -34 46 -29 25 6
-15 25 -15 32 -4 46 21 26 2 30 -25 5 l-25 -23 0 41 c0 23 -4 42 -10 42 -6 0
-10 -30 -10 -70z"/>
<path d="M3680 870 c0 -5 5 -10 10 -10 6 0 10 5 10 10 0 6 -4 10 -10 10 -5 0
-10 -4 -10 -10z"/>
<path d="M2496 848 c-13 -14 -15 -23 -8 -26 17 -5 15 -32 -3 -32 -8 0 -15 -4
-15 -10 0 -5 5 -10 10 -10 6 0 10 -7 10 -15 0 -8 5 -15 10 -15 6 0 10 7 10 15
0 8 7 15 15 15 8 0 15 -8 15 -17 0 -14 4 -12 22 7 15 16 18 25 10 28 -17 5
-15 32 3 32 8 0 15 5 15 10 0 6 -4 10 -10 10 -5 0 -10 7 -10 15 0 8 -4 15 -10
15 -5 0 -10 -7 -10 -15 0 -20 -28 -19 -32 0 -2 13 -7 11 -22 -7z m54 -43 c0
-8 -9 -15 -20 -15 -11 0 -20 7 -20 15 0 8 9 15 20 15 11 0 20 -7 20 -15z"/>
<path d="M2600 860 c0 -5 9 -10 20 -10 18 0 20 -7 20 -55 0 -30 5 -55 10 -55
6 0 10 25 10 55 0 48 2 55 20 55 11 0 20 5 20 10 0 6 -22 10 -50 10 -27 0 -50
-4 -50 -10z"/>
<path d="M2982 854 c-18 -12 -22 -24 -20 -52 4 -44 39 -69 81 -58 37 9 34 27
-3 20 -36 -8 -60 9 -60 41 0 32 24 49 60 41 31 -6 42 7 14 18 -26 10 -48 7
-72 -10z"/>
<path d="M3981 856 c-18 -22 -7 -45 29 -57 16 -6 30 -17 30 -25 0 -17 -23 -18
-51 -4 -15 8 -19 7 -19 -4 0 -32 74 -36 91 -4 10 18 8 24 -11 40 -12 10 -28
18 -36 18 -8 0 -14 7 -14 16 0 13 7 15 31 10 22 -4 29 -2 27 7 -7 18 -63 21
-77 3z"/>
<path d="M2725 820 c-24 -27 -13 -68 22 -76 34 -9 57 6 61 40 6 53 -47 76 -83
36z m60 -30 c0 -18 -6 -26 -21 -28 -23 -3 -37 18 -27 44 10 25 48 13 48 -16z"/>
<path d="M2840 768 c0 -39 4 -68 10 -68 6 0 10 11 10 24 0 19 4 22 25 18 33
-6 55 14 55 48 0 36 -17 48 -62 47 l-38 -1 0 -68z m75 22 c0 -18 -6 -26 -23
-28 -24 -4 -38 18 -28 44 3 9 15 14 28 12 17 -2 23 -10 23 -28z"/>
<path d="M3108 829 c-21 -12 -24 -59 -6 -77 17 -17 54 -15 72 4 44 44 -12 105
-66 73z m57 -29 c8 -26 -1 -40 -26 -40 -22 0 -34 22 -25 45 8 22 44 18 51 -5z"/>
<path d="M3200 833 c0 -22 35 -93 46 -93 7 0 15 14 19 30 4 17 10 30 15 30 5
0 11 -13 15 -30 10 -44 31 -37 49 17 19 54 18 53 7 53 -4 0 -15 -17 -23 -37
l-14 -38 -13 38 c-15 45 -30 44 -47 -4 l-12 -34 -11 28 c-6 16 -11 33 -11 38
0 5 -4 9 -10 9 -5 0 -10 -3 -10 -7z"/>
<path d="M3386 824 c-32 -31 -8 -84 38 -84 30 0 46 18 46 52 0 43 -53 64 -84
32z m59 -34 c0 -18 -6 -26 -23 -28 -13 -2 -25 3 -28 12 -10 26 4 48 28 44 17
-2 23 -10 23 -28z"/>
<path d="M3500 789 c0 -27 5 -49 10 -49 6 0 10 16 10 35 0 22 6 38 15 41 23 9
18 22 -10 22 -23 0 -25 -4 -25 -49z"/>
<path d="M3680 790 c0 -27 5 -50 10 -50 6 0 10 23 10 50 0 28 -4 50 -10 50 -5
0 -10 -22 -10 -50z"/>
<path d="M3730 788 c0 -26 5 -48 10 -48 6 0 10 10 10 23 0 33 23 62 44 54 11
-4 16 -18 16 -42 0 -19 5 -35 10 -35 14 0 12 76 -2 88 -7 6 -30 10 -50 9 l-38
-1 0 -48z"/>
<path d="M3861 826 c-7 -8 -11 -27 -9 -43 2 -24 8 -28 36 -31 40 -4 38 -27 -1
-27 -32 1 -36 -11 -7 -20 44 -14 78 38 68 106 -2 19 -10 24 -39 26 -23 2 -41
-2 -48 -11z m54 -36 c0 -16 -6 -26 -18 -28 -19 -4 -32 20 -23 44 9 25 41 13
41 -16z"/>
<path d="M4090 774 c0 -35 5 -66 10 -69 6 -4 10 5 10 20 0 22 3 25 25 19 33
-8 55 11 55 46 0 36 -17 48 -62 47 l-38 -1 0 -62z m75 16 c0 -18 -6 -26 -21
-28 -23 -3 -37 18 -27 44 10 25 48 13 48 -16z"/>
<path d="M4225 830 c-3 -6 5 -10 19 -10 14 0 28 -4 31 -10 3 -6 -4 -10 -18
-10 -29 0 -52 -23 -43 -45 4 -10 18 -14 46 -13 39 1 40 2 40 38 0 20 -5 41
-12 48 -15 15 -54 16 -63 2z m50 -60 c-3 -5 -15 -10 -26 -10 -10 0 -19 5 -19
10 0 6 12 10 26 10 14 0 23 -4 19 -10z"/>
<path d="M4336 824 c-43 -42 13 -107 64 -74 15 10 13 11 -30 13 -20 2 -25 7
-25 27 0 20 5 25 25 27 43 2 45 3 30 13 -22 14 -46 12 -64 -6z"/>
<path d="M4434 815 c-15 -23 -15 -27 0 -51 13 -18 24 -24 43 -22 15 2 28 8 30
14 2 7 -8 9 -27 6 -18 -3 -30 0 -30 7 0 6 16 11 35 11 27 0 35 4 35 18 0 45
-60 57 -86 17z m61 -5 c4 -6 -5 -10 -19 -10 -14 0 -26 5 -26 10 0 6 9 10 19
10 11 0 23 -4 26 -10z"/>
</g>
</svg>
